<svg xmlns="http://www.w3.org/2000/svg" xmlns:xlink="http://www.w3.org/1999/xlink" viewBox="0 0 65 45"><path fill="#FFF" d="M.675 8.512h63.01v30.744H.675z"/><defs><path id="a" d="M.576.833H64.5v43.64H.576z"/></defs><clipPath id="b"><use xlink:href="#a" overflow="visible"/></clipPath><radialGradient id="c" cx="185.869" cy="-198.422" r="31.479" gradientTransform="matrix(1.5293 1.6324 1.5061 -1.3996 25.968 -582.227)" gradientUnits="userSpaceOnUse"><stop offset="0" stop-color="#80d2f1"/><stop offset=".871" stop-color="#087dc1"/></radialGradient><path clip-path="url(#b)" fill="url(#c)" d="M63.506 23.872h-3.374c-.975 0-1.706.226-2.21.589v-.589h-4.813c-.763 0-1.683.184-2.11.589v-.589h-8.602v.589c-.688-.484-1.841-.589-2.384-.589h-5.679v.589c-.544-.521-1.736-.589-2.466-.589h-6.367l-1.457 1.57-1.354-1.57h-9.494V34.11h9.317l1.494-1.594 1.414 1.59 5.736.005v-2.414h.571c.758 0 1.656-.017 2.439-.353v2.767h4.751v-2.68h.232c.289-.003.312.022.312.296v2.384h14.383c.905 0 1.881-.233 2.407-.648v.648h4.559c.945 0 3.006-.137 3.712-.469V52.4H.736V21.483h3.008l.678-1.642h1.516l.681 1.642h5.921v-1.249l.531 1.252h3.065l.534-1.272v1.269h14.707l-.003-2.68h.287c.212 0 .262.025.262.35v2.33h7.609l-.002-.636c.606.328 1.559.636 2.826.636h3.2l.691-1.642h1.516l.681 1.642h6.15v-1.555l.945 1.555h4.941V11.244h-4.886v1.207l-.701-1.207h-5.02v1.207l-.616-1.207h-6.781c-1.142 0-2.147.152-2.945.589v-.589h-4.674v.589c-.531-.447-1.222-.589-1.995-.589H15.765l-1.157 2.64-1.17-2.64h-5.38v1.207l-.608-1.207H2.859L.736 16.1v-26.34h63.786l-.109 34.113m-5.496-3.836h-2.509l-3.334-5.507.002 5.507h-3.584l-.678-1.644h-3.666l-.676 1.644h-2.05c-.865 0-1.948-.199-2.561-.817-.618-.628-.933-1.465-.933-2.802 0-1.09.195-2.086.945-2.869.566-.584 1.467-.859 2.681-.859h1.683v1.575l-1.648-.003c-.651 0-1.018.097-1.362.44-.309.305-.516.892-.516 1.664 0 .782.155 1.344.501 1.721.259.286.748.375 1.222.375h.79l2.482-5.772h2.624l2.985 6.947V12.69h2.691l3.098 5.114-.003-5.114h1.816v7.347zm-22.652 0h1.803v-7.35h-1.803v7.35zm-1.92-6.992c-.569-.323-1.23-.355-2.122-.355h-4.058v7.347h1.761v-2.675h1.891c.641 0 1.027.057 1.279.323.327.345.289.986.289 1.423v.929h1.773v-1.458c0-.638-.045-.976-.292-1.331-.15-.214-.481-.477-.868-.623.464-.181 1.255-.785 1.255-1.95-.001-.822-.342-1.304-.908-1.63m-7.4 5.457l-4.122.005v-1.455l4.023.002v-1.51h-4.023V14.22h4.122v-1.53h-5.883v7.347h5.883v-1.535zm-7.198-5.812h-2.933l-2.12 4.983-2.297-4.983H9.515l.002 6.95-2.987-6.95H3.906L.751 20.037h1.92l.676-1.644h3.666l.678 1.644h3.584v-5.76l2.561 5.76h1.549l2.554-5.753v5.753h1.808V12.69zm28.434 4.173l-1.202-2.919-1.2 2.919h2.402zm-15.245-1.16c-.237.142-.524.151-.863.151h-2.147V14.22h2.172c.312 0 .628.01.838.127.219.122.362.348.362.658-.001.315-.138.569-.362.698m-28.958 1.16l1.2-2.919 1.202 2.919H3.978M63.781 30.35c0 1.562-.985 2.312-2.768 2.312h-3.402v-1.575H61c.327 0 .561-.045.708-.179a.647.647 0 0 0 .207-.479.614.614 0 0 0-.215-.487c-.132-.112-.312-.156-.613-.164-1.646-.045-3.716.052-3.716-2.278 0-1.053.671-2.186 2.524-2.186h3.511v1.577h-3.215c-.317 0-.529.01-.701.124-.187.122-.262.296-.262.531 0 .273.159.464.386.544.18.062.382.077.676.082l.945.025c.978.022 1.616.184 2.013.591.351.367.533.797.533 1.562m-7.415-1.56c-.397-.405-1.04-.569-2.018-.591l-.943-.025c-.294-.005-.494-.02-.676-.082a.556.556 0 0 1-.384-.544c0-.236.075-.41.259-.531.172-.114.387-.124.706-.124h3.23v-1.577h-3.529c-1.853 0-2.524 1.13-2.524 2.186 0 2.332 2.07 2.233 3.714 2.278.302.007.484.052.614.164a.616.616 0 0 1 .217.487c0 .206-.092.37-.209.479-.147.134-.379.179-.708.179h-3.419v1.575h3.432c1.783 0 2.768-.75 2.768-2.312-.001-.767-.181-1.197-.53-1.562m-6.719 2.345l-4.122-.002v-1.451h4.025V28.17l-4.025.002v-1.324h4.122v-1.533h-5.883v7.347h5.883v-1.527zm-7.766-5.462c-.571-.325-1.229-.358-2.12-.358h-4.06v7.347h1.758v-2.67l1.895-.002c.641 0 1.025.057 1.279.32.327.348.287.986.287 1.423v.929h1.776v-1.455c-.003-.638-.045-.976-.294-1.331-.147-.216-.479-.479-.863-.626.459-.181 1.249-.782 1.249-1.95.001-.82-.341-1.302-.907-1.627m-9.97-.358H26.28l-2.247 2.412-2.16-2.412H14.78v7.347h6.983l2.252-2.422 2.167 2.422h3.429v-2.459h2.19c1.539 0 3.065-.425 3.065-2.459 0-2.031-1.566-2.429-2.955-2.429m8.564 3.018c-.239.137-.526.147-.865.147l-2.15.003v-1.634h2.175c.312 0 .628.01.84.124.22.124.359.35.359.661 0 .314-.137.567-.359.699m-8.584.363h-2.279v-1.848h2.299c.631 0 1.065.261 1.065.897 0 .63-.414.951-1.085.951m-6.739.31l2.699-2.894v5.879l-2.699-2.985zm-4.282 2.126h-4.327v-1.451h3.858v-1.512l-3.858.002v-1.324h4.404l1.933 2.136-2.01 2.149"/><path fill="none" stroke="#E5E5E4" stroke-miterlimit="10" d="M.5.5h64v44H.5z"/></svg>