<svg xmlns="http://www.w3.org/2000/svg" viewBox="0 0 64.94 45.04"><path d="M.5.5h63.94v44.04H.5z" fill="#f8f8f8"/><path d="M64.97 45.02h-65v-45h65zm-64-1h63v-43h-63z" fill="#e5e5e5"/><path d="M26.43 8.09h12.08v21.72H26.43z" fill="#f26522"/><path d="M27.2 18.95a13.79 13.79 0 0 1 5.27-10.86 13.81 13.81 0 1 0 0 21.72 13.79 13.79 0 0 1-5.27-10.86" fill="#e51b24"/><path d="M54.81 18.95a13.81 13.81 0 0 1-22.34 10.86 13.81 13.81 0 0 0 0-21.72 13.81 13.81 0 0 1 22.34 10.86" fill="#f99f1c"/><path d="M18.26 39.7v-2.3a1.37 1.37 0 0 0-1.44-1.46 1.42 1.42 0 0 0-1.29.65 1.35 1.35 0 0 0-1.21-.65 1.22 1.22 0 0 0-1.07.55v-.47h-.8v3.67h.81v-2a.86.86 0 0 1 .9-1c.53 0 .8.34.8 1v2h.8v-2a.86.86 0 0 1 .9-1c.55 0 .8.34.8 1v2zm11.92-3.68h-1.31v-1.1h-.8v1.1h-.74v.73h.74v1.67c0 .85.33 1.36 1.27 1.36a1.88 1.88 0 0 0 1-.28l-.23-.68a1.46 1.46 0 0 1-.71.21c-.4 0-.53-.25-.53-.61v-1.65h1.3zm6.79-.08a1.08 1.08 0 0 0-1 .54v-.46h-.79v3.67h.8v-2.04c0-.61.26-.94.78-.94a1.29 1.29 0 0 1 .5.09l.25-.75a1.66 1.66 0 0 0-.57-.1m-10.29.38a2.74 2.74 0 0 0-1.49-.38c-.93 0-1.53.45-1.53 1.18s.44 1 1.26 1.08l.38.05c.43.06.64.18.64.38s-.29.44-.84.44a2 2 0 0 1-1.22-.38l-.38.62a2.64 2.64 0 0 0 1.59.47c1.06 0 1.67-.5 1.67-1.2s-.48-1-1.28-1.1l-.38-.05c-.35 0-.62-.12-.62-.36s.26-.43.7-.43a2.36 2.36 0 0 1 1.14.31zm21.37-.38a1.08 1.08 0 0 0-1 .54v-.47h-.79v3.67h.8v-2.04c0-.61.26-.94.78-.94a1.29 1.29 0 0 1 .5.09l.25-.75a1.65 1.65 0 0 0-.57-.1m-10.2 1.92a1.85 1.85 0 0 0 2 1.92 1.93 1.93 0 0 0 1.32-.44l-.39-.64a1.62 1.62 0 0 1-1 .33 1.18 1.18 0 0 1 0-2.35 1.62 1.62 0 0 1 1 .33l.39-.64a1.92 1.92 0 0 0-1.32-.44 1.86 1.86 0 0 0-2 1.93m7.47 0v-1.85h-.8v.45a1.39 1.39 0 0 0-1.16-.54 1.93 1.93 0 0 0 0 3.85 1.39 1.39 0 0 0 1.16-.54v.45h.8zm-3 0a1.11 1.11 0 1 1 1.14 1.15 1.1 1.1 0 0 1-1.11-1.17m-9.63-1.93a1.93 1.93 0 0 0 .05 3.85 2.22 2.22 0 0 0 1.5-.51l-.39-.59a1.74 1.74 0 0 1-1.07.38 1 1 0 0 1-1.1-.9h2.72v-.31a1.76 1.76 0 0 0-1.74-1.93m0 .72a.91.91 0 0 1 .93.89h-1.89a1 1 0 0 1 1-.89m20 1.21v-3.28h-.8v1.92a1.4 1.4 0 0 0-1.16-.54 1.93 1.93 0 0 0 0 3.85 1.4 1.4 0 0 0 1.16-.54v.45h.8zm-3 0a1.11 1.11 0 1 1 1.13 1.18 1.1 1.1 0 0 1-1.11-1.17m-26.94 0v-1.83h-.78v.45a1.4 1.4 0 0 0-1.16-.54 1.93 1.93 0 0 0 0 3.85 1.39 1.39 0 0 0 1.16-.52v.45h.8zm-3 0a1.11 1.11 0 1 1 1.14 1.17 1.1 1.1 0 0 1-1.11-1.17m34.19 1.32a.38.38 0 0 1 .15 0 .37.37 0 0 1 .12.08.41.41 0 0 1 .08.12.4.4 0 0 1 0 .14.39.39 0 0 1 0 .14.41.41 0 0 1-.08.11.39.39 0 0 1-.12.08.36.36 0 0 1-.15 0 .35.35 0 0 1-.26-.11.34.34 0 0 1-.08-.11.32.32 0 0 1 0-.14.33.33 0 0 1 0-.14.38.38 0 0 1 .2-.19.38.38 0 0 1 .15 0m0 .65h.11a.26.26 0 0 0 .09-.06.28.28 0 0 0 .06-.09.28.28 0 0 0 0-.11.26.26 0 0 0 0-.11.28.28 0 0 0-.06-.09l-.09-.06h-.22l-.09.06a.26.26 0 0 0-.06.09.22.22 0 0 0 0 .11.23.23 0 0 0 0 .11.26.26 0 0 0 .06.09l.09.06h.11m0-.46a.16.16 0 0 1 .1 0 .1.1 0 0 1 0 .08.1.1 0 0 1 0 .07.14.14 0 0 1-.08 0l.11.13h-.09l-.1-.13v.13h-.07v-.34zm-.08.06v.09h.13-.06z"/></svg>