<svg xmlns="http://www.w3.org/2000/svg" viewBox="0 0 65 45"><defs><style>.cls-1{fill:#fff}.cls-3{fill:#2c3378}.cls-4{fill:#219cd8}</style></defs><g id="Layer_2" data-name="Layer 2"><g id="mercado_pago" data-name="mercado pago"><path class="cls-1" d="M65 44.98L0 45V0h65v44.98z"/><path d="M65 45H0V0h65zM1 44h63V1H1z" fill="#e5e5e5"/><path class="cls-3" d="M45.91 11.68c0-4.82-6-8.75-13.37-8.75s-13.37 3.93-13.37 8.75v.51c0 5.11 5.24 9.25 13.38 9.25s13.37-4.14 13.37-9.25z"/><path class="cls-4" d="M45.4 11.67c0 4.55-5.76 8.23-12.86 8.23s-12.86-3.68-12.86-8.23 5.76-8.22 12.86-8.22S45.4 7.13 45.4 11.67z"/><path class="cls-1" d="M28.27 9.08s-.13.14-.05.25a1.6 1.6 0 0 0 1.46.27A4.12 4.12 0 0 0 31 8.75a5.47 5.47 0 0 1 1.52-1 1.67 1.67 0 0 1 1.11 0 3.15 3.15 0 0 1 1 .59c.88.66 4.42 3.75 5 4.28a31 31 0 0 1 5.65-1.82 7 7 0 0 0-2.68-4.22 8.29 8.29 0 0 1-7 .11 6.62 6.62 0 0 0-2.63-.6 4.74 4.74 0 0 0-3.66 1.77z"/><path class="cls-1" d="M39.53 13s-4.16-3.65-5.09-4.35a2.32 2.32 0 0 0-1.16-.55 1.41 1.41 0 0 0-.54.06 4.87 4.87 0 0 0-1.51.84 4.15 4.15 0 0 1-1.47.91 2.38 2.38 0 0 1-1.62-.24.73.73 0 0 1-.27-.29.49.49 0 0 1 .13-.52l1.13-1.23.41-.4a7.92 7.92 0 0 0-1 .24 4.76 4.76 0 0 1-1.21.22 10.46 10.46 0 0 1-1.23-.19 18.35 18.35 0 0 1-3.28-1.19 7.27 7.27 0 0 0-3 4.37l.76.21c3.66.81 4.8 1.65 5 1.82a1.21 1.21 0 0 1 1.9.11 1.42 1.42 0 0 1 .87-.3 1.69 1.69 0 0 1 .53.09 1.18 1.18 0 0 1 .73.66 1.28 1.28 0 0 1 .51-.11 1.54 1.54 0 0 1 .61.14 1.31 1.31 0 0 1 .72 1.45h.14A1.45 1.45 0 0 1 33 16.19a1.47 1.47 0 0 1-.17.69 2.26 2.26 0 0 0 1.26.33.85.85 0 0 0 .59-.25c0-.05.07-.11 0-.16l-1-1.14s-.17-.16-.11-.23.16 0 .24.09c.52.44 1.16 1.1 1.16 1.1a.5.5 0 0 0 .29.14 1.13 1.13 0 0 0 .82-.19 1.09 1.09 0 0 0 .18-.19.56.56 0 0 0 0-.68L35 14.36s-.17-.16-.11-.22.16 0 .24.09c.38.32.92.86 1.44 1.36a1 1 0 0 0 1.15 0 .81.81 0 0 0 .43-.75.89.89 0 0 0-.26-.5l-1.64-1.66s-.17-.15-.11-.22.16 0 .23.09c.53.44 1.95 1.74 1.95 1.74a1 1 0 0 0 1.11 0 .74.74 0 0 0 .37-.59.87.87 0 0 0-.27-.7z"/><path class="cls-1" d="M31.55 15.06a3.89 3.89 0 0 0-.57.13v-.18c0-.06.36-1.07-.46-1.42a1 1 0 0 0-1.14.17h-.05a.91.91 0 0 0-.64-.84 1.22 1.22 0 0 0-1.39.5.9.9 0 1 0-.89 1 .91.91 0 0 0 .62-.25 1.18 1.18 0 0 0 .73 1.36.89.89 0 0 0 .87-.14c.07-.05.08 0 .07 0a.84.84 0 0 0 .63.9.79.79 0 0 0 .94-.17c.08-.07.1-.06.1 0a1.14 1.14 0 0 0 1.13 1.08 1.12 1.12 0 0 0 1.13-1.13 1.14 1.14 0 0 0-1.08-1.01z"/><path class="cls-3" d="M39.69 12.53c-1.27-1.1-4.2-3.65-5-4.25a3.59 3.59 0 0 0-1-.6 1.6 1.6 0 0 0-.51-.08 2.21 2.21 0 0 0-.64.11 5.28 5.28 0 0 0-1.52 1 4.11 4.11 0 0 1-1.29.83 2.61 2.61 0 0 1-.48.05 1.22 1.22 0 0 1-.9-.29v-.14l1.11-1.2a4.66 4.66 0 0 1 3.6-1.75h.1a6.84 6.84 0 0 1 2.5.59 7.73 7.73 0 0 0 3.4.82 8.9 8.9 0 0 0 3.74-.9c-.14-.12-.3-.24-.45-.35a8.3 8.3 0 0 1-3.28.74 7.2 7.2 0 0 1-3.19-.77 7.34 7.34 0 0 0-2.72-.64H33a4.8 4.8 0 0 0-3.1 1.1 6.29 6.29 0 0 0-1.55.29 4.26 4.26 0 0 1-1.09.21h-.41A21 21 0 0 1 23 6.17l-.46.34a19.27 19.27 0 0 0 4.25 1.23h.54a4.68 4.68 0 0 0 1.23-.22c.24-.07.5-.14.78-.2l-.22.22L28 8.8a.57.57 0 0 0-.15.63.81.81 0 0 0 .29.33 2.43 2.43 0 0 0 1.21.3 1.86 1.86 0 0 0 .48-.05 4.28 4.28 0 0 0 1.5-.92 4.75 4.75 0 0 1 1.48-.88 1.45 1.45 0 0 1 .41-.06h.11a2.26 2.26 0 0 1 1.11.54c.93.7 5 4.3 5.09 4.34a.75.75 0 0 1 .25.6.68.68 0 0 1-.33.53 1 1 0 0 1-.54.17.93.93 0 0 1-.48-.14s-1.43-1.31-1.99-1.74a.47.47 0 0 0-.25-.13.1.1 0 0 0-.1 0c-.09.1 0 .24.11.33l1.65 1.66a.76.76 0 0 1 .23.44.77.77 0 0 1-.39.69 1.14 1.14 0 0 1-.59.19.94.94 0 0 1-.47-.14l-.23-.24c-.44-.42-.88-.86-1.21-1.13A.41.41 0 0 0 35 14a.15.15 0 0 0-.11 0s-.06.12 0 .24a.66.66 0 0 0 .09.09l1.2 1.36a.45.45 0 0 1 0 .57v.06a.52.52 0 0 1-.11.1 1 1 0 0 1-.59.19h-.16a.45.45 0 0 1-.24-.1 15.79 15.79 0 0 0-1.18-1.1.36.36 0 0 0-.23-.13.16.16 0 0 0-.11.05c-.1.11.05.27.12.33l1 1.13a.13.13 0 0 1 0 .07c0 .05-.16.18-.53.22h-.14a2.36 2.36 0 0 1-1-.3 1.58 1.58 0 0 0 .14-.65 1.53 1.53 0 0 0-1.53-1.53h-.12a1.37 1.37 0 0 0-.78-1.44 1.64 1.64 0 0 0-.64-.14 1.27 1.27 0 0 0-.47.09 1.29 1.29 0 0 0-.75-.64 1.76 1.76 0 0 0-.55-.09 1.46 1.46 0 0 0-.85.27 1.28 1.28 0 0 0-1.92-.11c-.32-.24-1.59-1-5-1.82-.16 0-.54-.14-.77-.21a5 5 0 0 0-.09.56l.75.17c3.46.77 4.61 1.57 4.8 1.72a1.44 1.44 0 0 0-.1.5 1.3 1.3 0 0 0 1.3 1.3h.24a1.5 1.5 0 0 0 1 1.13 1.25 1.25 0 0 0 .46.09 1 1 0 0 0 .3 0 1.46 1.46 0 0 0 1.31.86 1.09 1.09 0 0 0 .4-.07 1.52 1.52 0 0 0 1.41.95 1.57 1.57 0 0 0 1.1-.46 3 3 0 0 0 1.3.38h.19a1.2 1.2 0 0 0 .86-.44.41.41 0 0 0 0-.09 1.37 1.37 0 0 0 .42.07 1.42 1.42 0 0 0 .84-.3 1.18 1.18 0 0 0 .49-.72 1.33 1.33 0 0 0 .28 0 1.53 1.53 0 0 0 .86-.27 1.23 1.23 0 0 0 .62-1.11 1.33 1.33 0 0 0 .28 0 1.45 1.45 0 0 0 .81-.25 1.17 1.17 0 0 0 .56-.91 1.2 1.2 0 0 0-.18-.74 33.89 33.89 0 0 1 5.35-1.67c0-.19 0-.37-.08-.55a30.83 30.83 0 0 0-5.56 1.87zm-8.14 4.71a1 1 0 0 1-1-1s0-.18-.12-.18a.19.19 0 0 0-.12.07.74.74 0 0 1-.52.23.9.9 0 0 1-.34-.07.77.77 0 0 1-.58-.82.13.13 0 0 0 0-.12.21.21 0 0 0-.11 0 .88.88 0 0 1-.5.18.75.75 0 0 1-.29-.06 1.09 1.09 0 0 1-.68-1.27.12.12 0 0 0 0-.1h-.1a.82.82 0 1 1-.57-1.4.81.81 0 0 1 .81.71v.22l.12-.19a1.19 1.19 0 0 1 .95-.52 1.12 1.12 0 0 1 .35.06.83.83 0 0 1 .58.77c0 .1.08.11.1.11a.13.13 0 0 0 .09 0 .8.8 0 0 1 .6-.25 1.08 1.08 0 0 1 .45.1C31.3 14 31 15 31 15c-.07.17-.07.24 0 .28a.37.37 0 0 0 .15 0 1.65 1.65 0 0 1 .41-.09 1.06 1.06 0 0 1 1.05 1.05 1 1 0 0 1-1.06 1zm21.32 9.43a3.11 3.11 0 0 0-4.4 0 3.56 3.56 0 0 0 0 4.29 3.14 3.14 0 0 0 4.4 0 3.56 3.56 0 0 0 0-4.29zm-1.2 3.47a1.16 1.16 0 0 1-1 .46 1.18 1.18 0 0 1-1-.46 2.15 2.15 0 0 1-.36-1.33 2.12 2.12 0 0 1 .36-1.32 1.18 1.18 0 0 1 1-.46 1.16 1.16 0 0 1 1 .46 2.12 2.12 0 0 1 .33 1.32 2.15 2.15 0 0 1-.33 1.33zm-11.14-3.98a3.64 3.64 0 0 0-1.68-.37 2.45 2.45 0 0 0-2.05.76 2.16 2.16 0 0 0-.42 1.23h1.44a1.08 1.08 0 0 1 .22-.52.94.94 0 0 1 .76-.26 1.57 1.57 0 0 1 .73.14.52.52 0 0 1 .25.49.45.45 0 0 1-.33.42 2.28 2.28 0 0 1-.6.13l-.51.07a3.43 3.43 0 0 0-1.32.37 1.62 1.62 0 0 0-.83 1.53 1.59 1.59 0 0 0 .51 1.26 2.06 2.06 0 0 0 1.3.44c3.27.15 3.24-1.72 3.27-2.11v-2.17a1.44 1.44 0 0 0-.74-1.41zm-.76 3.27a1.2 1.2 0 0 1-.43 1 1.55 1.55 0 0 1-.9.28.79.79 0 0 1-.53-.17.67.67 0 0 1-.22-.55.69.69 0 0 1 .36-.64 2.37 2.37 0 0 1 .69-.21l.34-.06a3.29 3.29 0 0 0 .4-.1 1.59 1.59 0 0 0 .29-.15zm-6.7-2.36a1 1 0 0 1 .82.35 1.29 1.29 0 0 1 .23.58h1.61a2.18 2.18 0 0 0-.85-1.71 3.29 3.29 0 0 0-1.88-.48 2.68 2.68 0 0 0-2.09.82 3.22 3.22 0 0 0-.76 2.29 3.18 3.18 0 0 0 .71 2.08 2.61 2.61 0 0 0 2.14.82 2.6 2.6 0 0 0 2.2-1 2.48 2.48 0 0 0 .52-1.29h-1.61a1.46 1.46 0 0 1-.28.73 1 1 0 0 1-.79.28 1.05 1.05 0 0 1-1.04-.65 2.79 2.79 0 0 1-.15-1 3.1 3.1 0 0 1 .15-1.07 1.09 1.09 0 0 1 1.07-.75zm-3.33-1.26a2.8 2.8 0 0 0-3.13 2.94v3h1.51v-2.8a2.38 2.38 0 0 1 .17-1 1.25 1.25 0 0 1 1.22-.59h.43v-1.54h-.2zm-5.54 4.36a1.14 1.14 0 0 1-.2.23 1.31 1.31 0 0 1-.84.23 1.36 1.36 0 0 1-.8-.2 1.34 1.34 0 0 1-.61-1.19h4.16a7.15 7.15 0 0 0-.05-1.14 2.91 2.91 0 0 0-.45-1.18 2.38 2.38 0 0 0-1-.85 3.42 3.42 0 0 0-1.35-.26 2.73 2.73 0 0 0-2 .79 3.08 3.08 0 0 0-.79 2.28 2.78 2.78 0 0 0 .87 2.29 3.12 3.12 0 0 0 2 .7 2.79 2.79 0 0 0 2.14-.87 1.92 1.92 0 0 0 .52-.87zm-2-2.8a1.18 1.18 0 0 1 .89-.33 1.29 1.29 0 0 1 .89.31 1.25 1.25 0 0 1 .4.9h-2.6a1.57 1.57 0 0 1 .4-.88zm-2.57 4.36h-1.37v-3.46a1 1 0 0 0-1-1.07 1 1 0 0 0-1.05 1.07v3.46h-1.38v-3.46a1 1 0 0 0-1-1.07 1 1 0 0 0-1.05 1.07v3.46h-1.37V28.3a2.36 2.36 0 0 1 2.42-2.51 2.1 2.1 0 0 1 1.71.8 2.16 2.16 0 0 1 1.71-.8 2.29 2.29 0 0 1 2.38 2.51zM47.3 24s-1.52-.16-1.52 1.06v1.61a1.71 1.71 0 0 0-.65-.63 1.78 1.78 0 0 0-.93-.23 2.19 2.19 0 0 0-1.8.84 3.68 3.68 0 0 0-.67 2.35 3.14 3.14 0 0 0 .68 2.08 2.91 2.91 0 0 0 2.15.78 2.44 2.44 0 0 0 2.74-2.38zm-1.81 6.15a1.1 1.1 0 0 1-1 .47 1.08 1.08 0 0 1-1-.47 2.42 2.42 0 0 1-.31-1.31 2.25 2.25 0 0 1 .31-1.23 1 1 0 0 1 1-.5 1.17 1.17 0 0 1 .76.28 2 2 0 0 1 .53 1.54 2 2 0 0 1-.29 1.22z"/><path class="cls-4" d="M22.37 40.83a.72.72 0 0 1-.23.53.73.73 0 0 1-.53.22h-.75v-5.24a2.41 2.41 0 0 1 .91-2.09 3 3 0 0 1 2-.56 2.61 2.61 0 0 1 2 .82 3.22 3.22 0 0 1 .71 2.18 3.54 3.54 0 0 1-.66 2.23 2.09 2.09 0 0 1-1.71.83 2.27 2.27 0 0 1-1-.2 1.55 1.55 0 0 1-.71-.68zm2.52-4.08a2.22 2.22 0 0 0-.33-1.31 1.09 1.09 0 0 0-.95-.46 1.07 1.07 0 0 0-.93.46 2.18 2.18 0 0 0-.31 1.31A2 2 0 0 0 22.7 38a1.09 1.09 0 0 0 .95.46 1 1 0 0 0 .91-.46 2.11 2.11 0 0 0 .33-1.25m11.53 2.52v-.37a1.69 1.69 0 0 1-1.06.76 2.15 2.15 0 0 1-1.36-.11 2.45 2.45 0 0 1-1.12-1 3.39 3.39 0 0 1-.47-1.87 3.65 3.65 0 0 1 .62-2.2 2.38 2.38 0 0 1 2-.84 2.75 2.75 0 0 1 1.93.57 2.41 2.41 0 0 1 .9 2.1v3.08a2.57 2.57 0 0 1-2.83 2.64 2.49 2.49 0 0 1-2.49-1.88h1.59a1.09 1.09 0 0 0 .54.47 1.13 1.13 0 0 0 .72.09 1.22 1.22 0 0 0 .65-.42 1.79 1.79 0 0 0 .34-1m-2.49-2.52c0 1 .29 1.56.88 1.67a1.17 1.17 0 0 0 1.28-.4 1.66 1.66 0 0 0 .28-.75 2.92 2.92 0 0 0 0-1 2 2 0 0 0-.36-.9.94.94 0 0 0-.77-.39 1 1 0 0 0-1 .55 2.76 2.76 0 0 0-.27 1.24m-2.77-2.7a3.65 3.65 0 0 0-1.68-.38 2.47 2.47 0 0 0-2.05.76 2.12 2.12 0 0 0-.43 1.24h1.45a1.12 1.12 0 0 1 .22-.53 1 1 0 0 1 .76-.26 1.59 1.59 0 0 1 .73.13.53.53 0 0 1 .25.49.46.46 0 0 1-.33.43 2.78 2.78 0 0 1-.6.13l-.51.06a3.82 3.82 0 0 0-1.33.37 1.64 1.64 0 0 0-.82 1.54 1.59 1.59 0 0 0 .51 1.26 2 2 0 0 0 1.3.45c3.28.14 3.24-1.73 3.27-2.12V35.5a1.44 1.44 0 0 0-.74-1.41m-.76 3.27a1.2 1.2 0 0 1-.43 1 1.58 1.58 0 0 1-.91.28.78.78 0 0 1-.52-.17.64.64 0 0 1-.22-.55.7.7 0 0 1 .35-.64 2.45 2.45 0 0 1 .7-.21l.34-.06a3.29 3.29 0 0 0 .4-.1 1.59 1.59 0 0 0 .29-.15zm13.2-2.8a3.11 3.11 0 0 0-4.4 0 3.31 3.31 0 0 0-.73 2.15 3.26 3.26 0 0 0 .73 2.15 3.14 3.14 0 0 0 4.4 0 3.26 3.26 0 0 0 .73-2.15 3.31 3.31 0 0 0-.73-2.15M42.4 38a1.17 1.17 0 0 1-1 .46 1.21 1.21 0 0 1-1-.46 2.24 2.24 0 0 1-.4-1.29 2.19 2.19 0 0 1 .35-1.33 1.21 1.21 0 0 1 1-.46 1.17 1.17 0 0 1 1 .46 2.13 2.13 0 0 1 .36 1.33A2.17 2.17 0 0 1 42.4 38"/></g></g></svg>