<?xml version="1.0" encoding="utf-8"?>
<!-- Generator: Adobe Illustrator 25.0.1, SVG Export Plug-In . SVG Version: 6.00 Build 0)  -->
<svg version="1.1" id="Capa_1" xmlns="http://www.w3.org/2000/svg" xmlns:xlink="http://www.w3.org/1999/xlink" x="0px" y="0px"
	 viewBox="0 0 386.39 330" style="enable-background:new 0 0 386.39 330;" xml:space="preserve">
<style type="text/css">
	.st0{fill:#FFFFFF;}
</style>
<g>
	<path d="M8.05,227.83c0.71-1.61,1.33-3.28,2.15-4.84c3.36-6.39,8.77-9.77,15.88-10.35c9.13-0.75,18.27-1.29,27.39-2.06
		c7.36-0.62,13.89,0.59,18.68,6.96c0.46,0.61,2.54,0.39,3.7,0.03c8.81-2.77,17.42-6.44,26.41-8.38c17.89-3.86,35.73-1.96,53.23,2.95
		c9.81,2.75,19.7,4.24,29.91,4.29c22.18,0.09,44.35,0.52,66.52,0.77c9.95,0.11,17.72,7.34,18.05,16.9
		c0.36,10.27-6.59,18.05-16.74,19.04c-26.5,2.57-52.98,5.22-79.47,7.88c-3.56,0.36-5.54,2.38-5.12,5.21
		c0.47,3.21,2.66,4.35,5.7,4.24c31.8-1.14,63.54-2.85,94.82-9.34c7.78-1.61,14.81-4.91,21.32-9.41
		c18.56-12.81,37.91-24.28,58.18-34.19c3.02-1.47,6.18-2.69,9.37-3.75c7.08-2.35,13.75-0.41,17.43,4.88
		c3.95,5.67,3.9,13.76-0.55,19.23c-1.93,2.38-4.38,4.53-7,6.13c-34.01,20.78-68.08,41.46-102.16,62.13
		c-12.68,7.69-26.35,11.4-41.3,10.68c-41.04-1.98-82.1-3.76-123.15-5.61c-6.5-0.29-13-0.65-19.5-0.81
		c-1.09-0.03-2.76,0.55-3.22,1.37c-3.52,6.19-9.07,8.7-15.82,9.17c-9.62,0.67-19.23,1.36-28.85,1.92
		c-11.44,0.66-20.01-6.96-20.8-18.37c-1.47-21.27-2.93-42.55-4.43-63.82c-0.08-1.17-0.41-2.31-0.62-3.47
		C8.05,234.1,8.05,230.97,8.05,227.83z M44.88,305.89c5.84,0,10.81-5.04,10.73-10.87c-0.08-5.73-4.89-10.55-10.61-10.64
		c-5.86-0.09-10.85,4.82-10.88,10.7C34.09,300.97,38.99,305.89,44.88,305.89z"/>
	<path d="M289.65,80.74c0,8.67-0.11,17.35,0.02,26.02c0.29,17.98-7.04,32.89-18.29,46.28c-10.89,12.96-24.46,22.38-39.49,29.83
		c-5.28,2.62-10.73,4.89-16.1,7.3c-3.91,1.75-7.9,2.08-11.94,0.54c-18.97-7.23-36.48-16.9-51.04-31.3
		c-12.74-12.6-21.76-27.24-23.77-45.47c-0.41-3.7-0.57-7.45-0.59-11.18c-0.06-17.59-0.04-35.18-0.01-52.78
		c0-2.04,0.12-4.1,0.37-6.13c0.7-5.65,4.61-10.08,10.3-10.45c22.98-1.5,43.08-10.43,61.64-23.41c5.8-4.05,11.12-3.79,17.02-0.03
		c7.8,4.97,15.77,9.75,24.02,13.91c10.96,5.52,22.88,7.93,35.05,9.31c8.95,1.01,13.01,5.68,13.09,14.65
		c0.1,10.96,0.02,21.93,0.02,32.9C289.85,80.74,289.75,80.74,289.65,80.74z M208.88,101.55c0.07,1.32,0.19,2.63,0.19,3.95
		c0.01,20.59,0.01,41.18,0.01,61.78c0,1.3,0,2.6,0,4.21c1.11-0.34,1.93-0.47,2.64-0.83c7.74-3.87,15.78-7.24,23.1-11.78
		c13.6-8.43,24.88-19.33,31.76-34.13c3.48-7.48,3.89-15.42,3.48-23.5c-0.89-0.1-1.36-0.21-1.83-0.21
		c-18.91-0.01-37.81-0.02-56.72,0.01c-0.91,0-1.82,0.39-2.73,0.6c0.1-0.95,0.27-1.9,0.27-2.85c0.02-22.75,0.01-45.5,0.01-68.26
		c0-0.67-0.07-1.34-0.14-2.63c-18.9,12.67-38.74,21.66-60.92,24.08c0,16.59,0,32.76,0,49.13c1.63,0,2.95,0,4.26,0
		c17.58,0,35.15-0.01,52.73,0.02C206.29,101.14,207.58,101.42,208.88,101.55z"/>
	<path d="M345.54,202.88c-19.39,11.09-38.91,22.26-58.26,33.33c-0.52-3.2-1.24-7.15-1.72-11.14c-0.07-0.62,0.82-1.67,1.51-2.01
		c14.09-7,28.15-14.05,42.36-20.79C335,199.63,340.78,199.47,345.54,202.88z"/>
	<path d="M270.62,205.22c11.78-4.44,22.84-8.78,34.04-12.74c4.49-1.59,8.99-0.74,13.15,2.23c-13.04,5.86-25.89,11.64-39.2,17.62
		C276.59,210.54,274.03,208.25,270.62,205.22z"/>
	<path class="st0" d="M44.88,305.89c-5.89,0-10.79-4.92-10.76-10.81c0.03-5.88,5.02-10.79,10.88-10.7
		c5.72,0.09,10.53,4.92,10.61,10.64C55.69,300.85,50.73,305.88,44.88,305.89z"/>
	<path class="st0" d="M208.87,101.57c-1.29-0.15-2.58-0.42-3.87-0.43c-17.58-0.03-35.15-0.02-52.73-0.02c-1.31,0-2.63,0-4.26,0
		c0-16.37,0-32.54,0-49.13c22.18-2.42,42.03-11.41,60.92-24.08c0.07,1.3,0.14,1.96,0.14,2.63c0.01,22.75,0.01,45.5-0.01,68.26
		c0,0.95-0.18,1.9-0.27,2.85L208.87,101.57z"/>
	<path class="st0" d="M208.79,101.65c0.91-0.21,1.82-0.6,2.73-0.6c18.91-0.03,37.81-0.02,56.72-0.01c0.47,0,0.95,0.1,1.83,0.21
		c0.4,8.09-0.01,16.02-3.48,23.5c-6.89,14.8-18.16,25.7-31.76,34.13c-7.32,4.54-15.37,7.91-23.1,11.78
		c-0.71,0.36-1.53,0.49-2.64,0.83c0-1.61,0-2.91,0-4.21c0-20.59,0-41.18-0.01-61.78c0-1.32-0.12-2.63-0.19-3.94
		C208.87,101.57,208.79,101.65,208.79,101.65z"/>
</g>
</svg>
