<?xml version="1.0" encoding="utf-8"?>
<!-- Generator: Adobe Illustrator 25.0.1, SVG Export Plug-In . SVG Version: 6.00 Build 0)  -->
<svg version="1.1" id="Layer_1" xmlns="http://www.w3.org/2000/svg" xmlns:xlink="http://www.w3.org/1999/xlink" x="0px" y="0px"
	 viewBox="0 0 500 148.3" style="enable-background:new 0 0 500 148.3;" xml:space="preserve">
<style type="text/css">
	.st0{fill:#050519;}
	.st1{filter:url(#Adobe_OpacityMaskFilter);}
	.st2{opacity:0.9;}
	.st3{fill:url(#SVGID_2_);}
	.st4{fill:url(#SVGID_3_);}
	.st5{fill:url(#SVGID_4_);}
	.st6{fill:url(#SVGID_5_);}
	.st7{fill:url(#SVGID_6_);}
	.st8{opacity:0.5;mask:url(#SVGID_1_);}
	.st9{fill:url(#SVGID_7_);}
	.st10{fill:url(#SVGID_8_);}
	.st11{fill:url(#SVGID_9_);}
	.st12{fill:url(#SVGID_10_);}
	.st13{fill:url(#SVGID_11_);}
</style>
<g>
	<g>
		<g>
			<path class="st0" d="M177.4,52.5v14.4h-39.2c0.4,4.4,1.8,7.6,4.3,9.4c2.5,1.9,6.6,2.8,12.2,2.8h22.7v14.4h-24.7
				c-5.4,0-9.7-0.5-13.1-1.4c-3.4-1-6.6-2.6-9.6-4.9c-8.2-6.3-12.3-15.8-12.3-28.3c0-8.2,2.2-15.4,6.5-21.4c3-4.2,6.6-7.1,10.7-8.9
				c4.2-1.8,9.6-2.6,16.4-2.6h26.1v14.4h-24.7c-5.1,0-8.6,0.9-10.7,2.6c-2.1,1.7-3.3,4.9-3.8,9.5C138.2,52.5,177.4,52.5,177.4,52.5z
				"/>
		</g>
		<g>
			<path class="st0" d="M208.8,26h35.9c5.3,0,9.4,0.4,12.3,1.2c2.8,0.8,5.4,2.2,7.7,4.3c4.7,4.3,7.1,11.1,7.1,20.5v41.6h-18.6V49.9
				c0-3.3-0.7-5.7-2.2-7.2s-3.9-2.2-7.3-2.2h-16.2v53.1h-18.6V26H208.8z"/>
		</g>
		<g>
			<path class="st0" d="M356.6,26v14.4h-22.3c-7.4,0-12.6,1.7-15.5,5c-2.8,3.2-4.1,8-4.1,14.4c0,7.3,2.3,12.5,6.8,15.8
				c1.9,1.4,3.9,2.3,6,2.8c2.2,0.5,5.2,0.7,9.1,0.7h20.1v14.4h-25.4c-6.8,0-12.2-0.7-16.2-2.1s-7.5-3.8-10.6-7.3
				c-5.8-6.5-8.7-14.7-8.7-24.6c0-12,3.5-21,10.4-27c2.8-2.4,6.1-4.1,10-5.1s8.9-1.5,15.1-1.5L356.6,26L356.6,26L356.6,26z"/>
		</g>
		<g>
			<path class="st0" d="M498.5,26h-87.7v0.2c-11.5,0.3-20.3,3.8-26.4,10.7c-5.7,6.3-8.5,14.2-8.5,23.7c0,11.1,2.9,19.6,8.8,25.5
				c6.4,6.5,15.3,9.7,26.6,9.7c10.9,0,19.5-2.9,25.8-8.7c6.9-6.3,10.3-14.7,10.3-25.3c0-8.3-1.9-15.4-5.8-21.4h56.9L498.5,26
				L498.5,26z M428.3,60.9c0,13.8-5.5,20.7-16.5,20.7c-6.4,0-11.1-2.5-14.2-7.4c-1.8-2.9-2.7-7.2-2.7-12.9
				c0-13.9,5.6-20.8,16.7-20.8C422.7,40.6,428.3,47.4,428.3,60.9z"/>
		</g>
		<g>
			<path class="st0" d="M94.2,40.4V26H77V1.1H58.5V26h-57v14.4h56.9v27.8c0,9.1,1.7,15.6,5.1,19.5c3.4,3.9,9.1,5.8,17.2,5.8h13.5
				V79.1h-7.3c-4,0-6.8-1.1-8.3-3.3c-1-1.5-1.6-5.1-1.6-10.8V40.4H94.2z"/>
		</g>
	</g>
	<defs>
		<filter id="Adobe_OpacityMaskFilter" filterUnits="userSpaceOnUse" x="1.5" y="93.6" width="497" height="52.8">
			<feColorMatrix  type="matrix" values="1 0 0 0 0  0 1 0 0 0  0 0 1 0 0  0 0 0 1 0"/>
		</filter>
	</defs>
	<mask maskUnits="userSpaceOnUse" x="1.5" y="93.6" width="497" height="52.8" id="SVGID_1_">
		<g class="st1">
			<g class="st2">
				<linearGradient id="SVGID_2_" gradientUnits="userSpaceOnUse" x1="147.55" y1="93.7" x2="147.55" y2="132.2">
					<stop  offset="0" style="stop-color:#FFFFFF"/>
					<stop  offset="4.713964e-02" style="stop-color:#DADADA"/>
					<stop  offset="0.1201" style="stop-color:#A7A7A7"/>
					<stop  offset="0.1966" style="stop-color:#7B7B7B"/>
					<stop  offset="0.2751" style="stop-color:#555555"/>
					<stop  offset="0.3563" style="stop-color:#363636"/>
					<stop  offset="0.4409" style="stop-color:#1E1E1E"/>
					<stop  offset="0.5304" style="stop-color:#0D0D0D"/>
					<stop  offset="0.6282" style="stop-color:#030303"/>
					<stop  offset="0.75" style="stop-color:#000000"/>
				</linearGradient>
				<path class="st3" d="M138.2,117.1c0.5,2.6,1.7,4.4,3.8,5.4s5.6,1.5,10.7,1.5h24.7v8.2h-26.1c-6.8,0-12.2-0.5-16.4-1.5
					s-7.7-2.7-10.7-5.1c-4.3-3.4-6.5-7.5-6.5-12.2c0-7.2,4.1-12.5,12.3-16.1c3-1.3,6.2-2.2,9.6-2.8c3.4-0.5,7.7-0.8,13.1-0.8h24.7
					v8.2h-22.7c-5.6,0-9.7,0.5-12.2,1.6s-3.9,2.8-4.3,5.4h39.2v8.2L138.2,117.1L138.2,117.1z"/>
				<linearGradient id="SVGID_3_" gradientUnits="userSpaceOnUse" x1="240.25" y1="93.7" x2="240.25" y2="132.2">
					<stop  offset="0" style="stop-color:#FFFFFF"/>
					<stop  offset="4.713964e-02" style="stop-color:#DADADA"/>
					<stop  offset="0.1201" style="stop-color:#A7A7A7"/>
					<stop  offset="0.1966" style="stop-color:#7B7B7B"/>
					<stop  offset="0.2751" style="stop-color:#555555"/>
					<stop  offset="0.3563" style="stop-color:#363636"/>
					<stop  offset="0.4409" style="stop-color:#1E1E1E"/>
					<stop  offset="0.5304" style="stop-color:#0D0D0D"/>
					<stop  offset="0.6282" style="stop-color:#030303"/>
					<stop  offset="0.75" style="stop-color:#000000"/>
				</linearGradient>
				<path class="st4" d="M208.8,93.7h18.6V124h16.2c3.4,0,5.8-0.4,7.3-1.3c1.5-0.8,2.2-2.2,2.2-4.1V93.7h18.6v23.7
					c0,5.4-2.4,9.3-7.1,11.7c-2.3,1.2-4.8,2-7.7,2.4c-2.8,0.4-6.9,0.7-12.3,0.7h-35.8L208.8,93.7L208.8,93.7z"/>
				<linearGradient id="SVGID_4_" gradientUnits="userSpaceOnUse" x1="326.15" y1="93.6" x2="326.15" y2="132.2">
					<stop  offset="0" style="stop-color:#FFFFFF"/>
					<stop  offset="4.713964e-02" style="stop-color:#DADADA"/>
					<stop  offset="0.1201" style="stop-color:#A7A7A7"/>
					<stop  offset="0.1966" style="stop-color:#7B7B7B"/>
					<stop  offset="0.2751" style="stop-color:#555555"/>
					<stop  offset="0.3563" style="stop-color:#363636"/>
					<stop  offset="0.4409" style="stop-color:#1E1E1E"/>
					<stop  offset="0.5304" style="stop-color:#0D0D0D"/>
					<stop  offset="0.6282" style="stop-color:#030303"/>
					<stop  offset="0.75" style="stop-color:#000000"/>
				</linearGradient>
				<path class="st5" d="M331.2,132.2c-6.2,0-11.2-0.3-15.1-0.9c-3.9-0.6-7.2-1.6-10-2.9c-7-3.4-10.4-8.5-10.4-15.4
					c0-5.7,2.9-10.3,8.7-14c3.1-2,6.7-3.4,10.6-4.2c4-0.8,9.4-1.2,16.2-1.2h25.4v8.2h-20.1c-3.9,0-6.9,0.1-9.1,0.4s-4.2,0.8-6,1.6
					c-4.5,1.9-6.8,4.9-6.8,9c0,3.7,1.4,6.4,4.1,8.2c2.9,1.9,8.1,2.9,15.5,2.9h22.3v8.2L331.2,132.2L331.2,132.2z"/>
				<linearGradient id="SVGID_5_" gradientUnits="userSpaceOnUse" x1="437.2" y1="95.8" x2="437.2" y2="135.6">
					<stop  offset="0" style="stop-color:#FFFFFF"/>
					<stop  offset="4.713964e-02" style="stop-color:#DADADA"/>
					<stop  offset="0.1201" style="stop-color:#A7A7A7"/>
					<stop  offset="0.1966" style="stop-color:#7B7B7B"/>
					<stop  offset="0.2751" style="stop-color:#555555"/>
					<stop  offset="0.3563" style="stop-color:#363636"/>
					<stop  offset="0.4409" style="stop-color:#1E1E1E"/>
					<stop  offset="0.5304" style="stop-color:#0D0D0D"/>
					<stop  offset="0.6282" style="stop-color:#030303"/>
					<stop  offset="0.75" style="stop-color:#000000"/>
				</linearGradient>
				<path class="st6" d="M498.5,127.3h-56.9c3.8-3.4,5.8-7.5,5.8-12.2c0-6-3.4-10.8-10.3-14.4c-6.3-3.3-14.9-4.9-25.8-4.9
					c-11.3,0-20.2,1.8-26.6,5.5c-5.9,3.4-8.8,8.2-8.8,14.6c0,5.4,2.8,9.9,8.5,13.5c6.1,3.9,15,5.9,26.4,6.1v0.1h87.7V127.3z
					 M411.6,127.3c-11.2,0-16.7-3.9-16.7-11.8c0-3.2,0.9-5.7,2.7-7.3c3-2.8,7.7-4.2,14.2-4.2c11,0,16.5,3.9,16.5,11.8
					C428.3,123.3,422.7,127.2,411.6,127.3z"/>
				<linearGradient id="SVGID_6_" gradientUnits="userSpaceOnUse" x1="47.85" y1="93.8" x2="47.85" y2="146.4">
					<stop  offset="0" style="stop-color:#FFFFFF"/>
					<stop  offset="4.713964e-02" style="stop-color:#DADADA"/>
					<stop  offset="0.1201" style="stop-color:#A7A7A7"/>
					<stop  offset="0.1966" style="stop-color:#7B7B7B"/>
					<stop  offset="0.2751" style="stop-color:#555555"/>
					<stop  offset="0.3563" style="stop-color:#363636"/>
					<stop  offset="0.4409" style="stop-color:#1E1E1E"/>
					<stop  offset="0.5304" style="stop-color:#0D0D0D"/>
					<stop  offset="0.6282" style="stop-color:#030303"/>
					<stop  offset="0.75" style="stop-color:#000000"/>
				</linearGradient>
				<path class="st7" d="M94.2,124v8.2H77v14.2H58.5v-14.2h-57V124h56.9v-15.8c0-5.2,1.7-8.9,5.1-11.1c3.4-2.2,9.1-3.3,17.2-3.3
					h13.5v8.2h-7.3c-4,0-6.8,0.6-8.3,1.9c-1,0.8-1.6,2.9-1.6,6.2v14L94.2,124L94.2,124z"/>
			</g>
		</g>
	</mask>
	<g class="st8">
		<linearGradient id="SVGID_7_" gradientUnits="userSpaceOnUse" x1="117.7" y1="112.95" x2="177.4" y2="112.95">
			<stop  offset="0" style="stop-color:#FFFFFF"/>
			<stop  offset="0.1324" style="stop-color:#C2C2C2"/>
			<stop  offset="0.2753" style="stop-color:#888888"/>
			<stop  offset="0.4136" style="stop-color:#575757"/>
			<stop  offset="0.5436" style="stop-color:#313131"/>
			<stop  offset="0.6634" style="stop-color:#161616"/>
			<stop  offset="0.7692" style="stop-color:#060606"/>
			<stop  offset="0.85" style="stop-color:#000000"/>
		</linearGradient>
		<path class="st9" d="M138.2,117.1c0.5,2.6,1.7,4.4,3.8,5.4s5.6,1.5,10.7,1.5h24.7v8.2h-26.1c-6.8,0-12.2-0.5-16.4-1.5
			s-7.7-2.7-10.7-5.1c-4.3-3.4-6.5-7.5-6.5-12.2c0-7.2,4.1-12.5,12.3-16.1c3-1.3,6.2-2.2,9.6-2.8c3.4-0.5,7.7-0.8,13.1-0.8h24.7v8.2
			h-22.7c-5.6,0-9.7,0.5-12.2,1.6s-3.9,2.8-4.3,5.4h39.2v8.2L138.2,117.1L138.2,117.1z"/>
		<linearGradient id="SVGID_8_" gradientUnits="userSpaceOnUse" x1="208.8" y1="112.95" x2="271.7" y2="112.95">
			<stop  offset="0" style="stop-color:#FFFFFF"/>
			<stop  offset="0.1324" style="stop-color:#C2C2C2"/>
			<stop  offset="0.2753" style="stop-color:#888888"/>
			<stop  offset="0.4136" style="stop-color:#575757"/>
			<stop  offset="0.5436" style="stop-color:#313131"/>
			<stop  offset="0.6634" style="stop-color:#161616"/>
			<stop  offset="0.7692" style="stop-color:#060606"/>
			<stop  offset="0.85" style="stop-color:#000000"/>
		</linearGradient>
		<path class="st10" d="M208.8,93.7h18.6V124h16.2c3.4,0,5.8-0.4,7.3-1.3c1.5-0.8,2.2-2.2,2.2-4.1V93.7h18.6v23.7
			c0,5.4-2.4,9.3-7.1,11.7c-2.3,1.2-4.8,2-7.7,2.4c-2.8,0.4-6.9,0.7-12.3,0.7h-35.8L208.8,93.7L208.8,93.7z"/>
		<linearGradient id="SVGID_9_" gradientUnits="userSpaceOnUse" x1="295.7" y1="112.9" x2="356.6" y2="112.9">
			<stop  offset="0" style="stop-color:#FFFFFF"/>
			<stop  offset="0.1324" style="stop-color:#C2C2C2"/>
			<stop  offset="0.2753" style="stop-color:#888888"/>
			<stop  offset="0.4136" style="stop-color:#575757"/>
			<stop  offset="0.5436" style="stop-color:#313131"/>
			<stop  offset="0.6634" style="stop-color:#161616"/>
			<stop  offset="0.7692" style="stop-color:#060606"/>
			<stop  offset="0.85" style="stop-color:#000000"/>
		</linearGradient>
		<path class="st11" d="M331.2,132.2c-6.2,0-11.2-0.3-15.1-0.9c-3.9-0.6-7.2-1.6-10-2.9c-7-3.4-10.4-8.5-10.4-15.4
			c0-5.7,2.9-10.3,8.7-14c3.1-2,6.7-3.4,10.6-4.2c4-0.8,9.4-1.2,16.2-1.2h25.4v8.2h-20.1c-3.9,0-6.9,0.1-9.1,0.4s-4.2,0.8-6,1.6
			c-4.5,1.9-6.8,4.9-6.8,9c0,3.7,1.4,6.4,4.1,8.2c2.9,1.9,8.1,2.9,15.5,2.9h22.3v8.2L331.2,132.2L331.2,132.2z"/>
		<linearGradient id="SVGID_10_" gradientUnits="userSpaceOnUse" x1="375.9" y1="115.7" x2="498.5" y2="115.7">
			<stop  offset="0" style="stop-color:#FFFFFF"/>
			<stop  offset="0.1324" style="stop-color:#C2C2C2"/>
			<stop  offset="0.2753" style="stop-color:#888888"/>
			<stop  offset="0.4136" style="stop-color:#575757"/>
			<stop  offset="0.5436" style="stop-color:#313131"/>
			<stop  offset="0.6634" style="stop-color:#161616"/>
			<stop  offset="0.7692" style="stop-color:#060606"/>
			<stop  offset="0.85" style="stop-color:#000000"/>
		</linearGradient>
		<path class="st12" d="M498.5,127.3h-56.9c3.8-3.4,5.8-7.5,5.8-12.2c0-6-3.4-10.8-10.3-14.4c-6.3-3.3-14.9-4.9-25.8-4.9
			c-11.3,0-20.2,1.8-26.6,5.5c-5.9,3.4-8.8,8.2-8.8,14.6c0,5.4,2.8,9.9,8.5,13.5c6.1,3.9,15,5.9,26.4,6.1v0.1h87.7V127.3z
			 M411.6,127.3c-11.2,0-16.7-3.9-16.7-11.8c0-3.2,0.9-5.7,2.7-7.3c3-2.8,7.7-4.2,14.2-4.2c11,0,16.5,3.9,16.5,11.8
			C428.3,123.3,422.7,127.2,411.6,127.3z"/>
		<linearGradient id="SVGID_11_" gradientUnits="userSpaceOnUse" x1="1.5" y1="120.1" x2="94.2" y2="120.1">
			<stop  offset="0" style="stop-color:#FFFFFF"/>
			<stop  offset="0.1324" style="stop-color:#C2C2C2"/>
			<stop  offset="0.2753" style="stop-color:#888888"/>
			<stop  offset="0.4136" style="stop-color:#575757"/>
			<stop  offset="0.5436" style="stop-color:#313131"/>
			<stop  offset="0.6634" style="stop-color:#161616"/>
			<stop  offset="0.7692" style="stop-color:#060606"/>
			<stop  offset="0.85" style="stop-color:#000000"/>
		</linearGradient>
		<path class="st13" d="M94.2,124v8.2H77v14.2H58.5v-14.2h-57V124h56.9v-15.8c0-5.2,1.7-8.9,5.1-11.1c3.4-2.2,9.1-3.3,17.2-3.3h13.5
			v8.2h-7.3c-4,0-6.8,0.6-8.3,1.9c-1,0.8-1.6,2.9-1.6,6.2v14L94.2,124L94.2,124z"/>
	</g>
</g>
</svg>
