<?xml version="1.0" encoding="utf-8"?>
<!-- Generator: Adobe Illustrator 24.0.2, SVG Export Plug-In . SVG Version: 6.00 Build 0)  -->
<svg version="1.1" id="Layer_1" xmlns="http://www.w3.org/2000/svg" xmlns:xlink="http://www.w3.org/1999/xlink" x="0px" y="0px"
	 viewBox="0 0 500 148.3" style="enable-background:new 0 0 500 148.3;" xml:space="preserve">
<style type="text/css">
	.st0{fill:#FFFFFF;}
	.st1{filter:url(#Adobe_OpacityMaskFilter);}
	.st2{fill:url(#SVGID_1_);}
	.st3{fill:url(#SVGID_3_);}
	.st4{fill:url(#SVGID_4_);}
	.st5{fill:url(#SVGID_5_);}
	.st6{fill:url(#SVGID_6_);}
	.st7{opacity:0.77;mask:url(#SVGID_2_);}
	.st8{fill:#DEDEDE;}
</style>
<g>
	<g>
		<path class="st0" d="M177.4,52.5v14.4h-39.2c0.4,4.4,1.8,7.6,4.3,9.4c2.5,1.9,6.6,2.8,12.2,2.8h22.7v14.4h-24.7
			c-5.4,0-9.7-0.5-13.1-1.4c-3.4-1-6.6-2.6-9.6-4.9c-8.2-6.3-12.3-15.8-12.3-28.3c0-8.2,2.2-15.4,6.5-21.4c3-4.2,6.6-7.1,10.7-8.9
			c4.2-1.8,9.6-2.6,16.4-2.6h26.1v14.4h-24.7c-5.1,0-8.6,0.9-10.7,2.6c-2.1,1.7-3.3,4.9-3.8,9.5C138.2,52.5,177.4,52.5,177.4,52.5z"
			/>
		<path class="st0" d="M208.8,26h35.9c5.3,0,9.4,0.4,12.3,1.2c2.8,0.8,5.4,2.2,7.7,4.3c4.7,4.3,7.1,11.1,7.1,20.5v41.6h-18.6V49.9
			c0-3.3-0.7-5.7-2.2-7.2c-1.5-1.5-3.9-2.2-7.3-2.2h-16.2v53.1h-18.6V26z"/>
		<path class="st0" d="M356.6,26v14.4h-22.3c-7.4,0-12.6,1.7-15.5,5c-2.8,3.2-4.1,8-4.1,14.4c0,7.3,2.3,12.5,6.8,15.8
			c1.9,1.4,3.9,2.3,6,2.8c2.2,0.5,5.2,0.7,9.1,0.7h20.1v14.4h-25.4c-6.8,0-12.2-0.7-16.2-2.1c-4-1.4-7.5-3.8-10.6-7.3
			c-5.8-6.5-8.7-14.7-8.7-24.6c0-12,3.5-21,10.4-27c2.8-2.4,6.1-4.1,10-5.1c3.9-1,8.9-1.5,15.1-1.5L356.6,26L356.6,26L356.6,26z"/>
		<path class="st0" d="M498.5,26h-87.7v0.2c-11.5,0.3-20.3,3.8-26.4,10.7c-5.7,6.3-8.5,14.2-8.5,23.7c0,11.1,2.9,19.6,8.8,25.5
			c6.4,6.5,15.3,9.7,26.6,9.7c10.9,0,19.5-2.9,25.8-8.7c6.9-6.3,10.3-14.7,10.3-25.3c0-8.3-1.9-15.4-5.8-21.4h56.9L498.5,26
			L498.5,26z M428.3,60.9c0,13.8-5.5,20.7-16.5,20.7c-6.4,0-11.1-2.5-14.2-7.4c-1.8-2.9-2.7-7.2-2.7-12.9c0-13.9,5.6-20.8,16.7-20.8
			C422.7,40.6,428.3,47.4,428.3,60.9z"/>
		<path class="st0" d="M94.2,40.4V26H77V1.1H58.5V26H1.5v14.4h56.9v27.8c0,9.1,1.7,15.6,5.1,19.5c3.4,3.9,9.1,5.8,17.2,5.8h13.5
			V79.1h-7.3c-4,0-6.8-1.1-8.3-3.3c-1-1.5-1.6-5.1-1.6-10.8V40.4H94.2z"/>
	</g>
	<defs>
		<filter id="Adobe_OpacityMaskFilter" filterUnits="userSpaceOnUse" x="1.5" y="93.2" width="496.9" height="54">
			
				<feColorMatrix  type="matrix" values="-1 0 0 0 1  0 -1 0 0 1  0 0 -1 0 1  0 0 0 1 0" color-interpolation-filters="sRGB" result="source"/>
		</filter>
	</defs>
	<mask maskUnits="userSpaceOnUse" x="1.5" y="93.2" width="496.9" height="54" id="SVGID_2_">
		<g class="st1">
			<g>
				
					<linearGradient id="SVGID_1_" gradientUnits="userSpaceOnUse" x1="-84.453" y1="-445.7226" x2="-84.453" y2="-407.2266" gradientTransform="matrix(1 0 0 -1 232 -312.7246)">
					<stop  offset="0.27" style="stop-color:#FFFFFF"/>
					<stop  offset="0.3885" style="stop-color:#FCFCFC"/>
					<stop  offset="0.4838" style="stop-color:#F2F2F2"/>
					<stop  offset="0.5709" style="stop-color:#E1E1E1"/>
					<stop  offset="0.6532" style="stop-color:#C9C9C9"/>
					<stop  offset="0.7322" style="stop-color:#AAAAAA"/>
					<stop  offset="0.8087" style="stop-color:#848484"/>
					<stop  offset="0.8831" style="stop-color:#585858"/>
					<stop  offset="0.9541" style="stop-color:#252525"/>
					<stop  offset="1" style="stop-color:#000000"/>
				</linearGradient>
				<path class="st2" d="M138.2,117.9c0.5,2.6,1.7,4.4,3.8,5.4c2.1,1,5.6,1.5,10.7,1.5h24.7v8.2h-26.1c-6.8,0-12.2-0.5-16.4-1.5
					c-4.2-1-7.7-2.7-10.7-5.1c-4.3-3.4-6.5-7.5-6.5-12.2c0-7.2,4.1-12.5,12.3-16.1c3-1.3,6.2-2.2,9.6-2.8c3.4-0.5,7.7-0.8,13.1-0.8
					h24.7v8.2h-22.7c-5.6,0-9.7,0.5-12.2,1.6c-2.5,1.1-3.9,2.8-4.3,5.4h39.2v8.2L138.2,117.9L138.2,117.9z"/>
				
					<linearGradient id="SVGID_3_" gradientUnits="userSpaceOnUse" x1="8.277" y1="-445.7206" x2="8.277" y2="-407.2266" gradientTransform="matrix(1 0 0 -1 232 -312.7246)">
					<stop  offset="0.27" style="stop-color:#FFFFFF"/>
					<stop  offset="0.3885" style="stop-color:#FCFCFC"/>
					<stop  offset="0.4838" style="stop-color:#F2F2F2"/>
					<stop  offset="0.5709" style="stop-color:#E1E1E1"/>
					<stop  offset="0.6532" style="stop-color:#C9C9C9"/>
					<stop  offset="0.7322" style="stop-color:#AAAAAA"/>
					<stop  offset="0.8087" style="stop-color:#848484"/>
					<stop  offset="0.8831" style="stop-color:#585858"/>
					<stop  offset="0.9541" style="stop-color:#252525"/>
					<stop  offset="1" style="stop-color:#000000"/>
				</linearGradient>
				<path class="st3" d="M208.8,94.5h18.6v30.3h16.2c3.4,0,5.8-0.4,7.3-1.3c1.5-0.8,2.2-2.2,2.2-4.1V94.5h18.6v23.7
					c0,5.4-2.4,9.3-7.1,11.7c-2.3,1.2-4.8,2-7.7,2.4c-2.8,0.4-6.9,0.7-12.3,0.7h-35.8V94.5z"/>
				
					<linearGradient id="SVGID_4_" gradientUnits="userSpaceOnUse" x1="94.156" y1="-445.7246" x2="94.156" y2="-407.2276" gradientTransform="matrix(1 0 0 -1 232 -312.7246)">
					<stop  offset="0.27" style="stop-color:#FFFFFF"/>
					<stop  offset="0.3885" style="stop-color:#FCFCFC"/>
					<stop  offset="0.4838" style="stop-color:#F2F2F2"/>
					<stop  offset="0.5709" style="stop-color:#E1E1E1"/>
					<stop  offset="0.6532" style="stop-color:#C9C9C9"/>
					<stop  offset="0.7322" style="stop-color:#AAAAAA"/>
					<stop  offset="0.8087" style="stop-color:#848484"/>
					<stop  offset="0.8831" style="stop-color:#585858"/>
					<stop  offset="0.9541" style="stop-color:#252525"/>
					<stop  offset="1" style="stop-color:#000000"/>
				</linearGradient>
				<path class="st4" d="M331.2,133c-6.2,0-11.2-0.3-15.1-0.9c-3.9-0.6-7.2-1.6-10-2.9c-7-3.4-10.4-8.5-10.4-15.4
					c0-5.7,2.9-10.3,8.7-14c3.1-2,6.7-3.4,10.6-4.1c4-0.8,9.4-1.2,16.2-1.2h25.4v8.2h-20.1c-3.9,0-6.9,0.1-9.1,0.4
					c-2.2,0.3-4.2,0.8-6,1.6c-4.5,1.9-6.8,4.9-6.8,9c0,3.7,1.4,6.4,4.1,8.2c2.9,1.9,8.1,2.9,15.5,2.9h22.3v8.2L331.2,133L331.2,133z
					"/>
				
					<linearGradient id="SVGID_5_" gradientUnits="userSpaceOnUse" x1="205.162" y1="-445.7246" x2="205.162" y2="-405.9526" gradientTransform="matrix(1 0 0 -1 232 -312.7246)">
					<stop  offset="0.27" style="stop-color:#FFFFFF"/>
					<stop  offset="0.3885" style="stop-color:#FCFCFC"/>
					<stop  offset="0.4838" style="stop-color:#F2F2F2"/>
					<stop  offset="0.5709" style="stop-color:#E1E1E1"/>
					<stop  offset="0.6532" style="stop-color:#C9C9C9"/>
					<stop  offset="0.7322" style="stop-color:#AAAAAA"/>
					<stop  offset="0.8087" style="stop-color:#848484"/>
					<stop  offset="0.8831" style="stop-color:#585858"/>
					<stop  offset="0.9541" style="stop-color:#252525"/>
					<stop  offset="1" style="stop-color:#000000"/>
				</linearGradient>
				<path class="st5" d="M498.5,124.8h-56.9c3.8-3.4,5.8-7.5,5.8-12.2c0-6-3.4-10.8-10.3-14.4c-6.3-3.3-14.9-4.9-25.8-4.9
					c-11.3,0-20.2,1.8-26.6,5.5c-5.9,3.4-8.8,8.2-8.8,14.6c0,5.4,2.8,9.9,8.5,13.5c6.1,3.9,15,5.9,26.4,6.1v0.1h87.7L498.5,124.8
					L498.5,124.8z M411.6,124.8c-11.2,0-16.7-3.9-16.7-11.9c0-3.2,0.9-5.7,2.7-7.3c3-2.8,7.7-4.2,14.2-4.2c11,0,16.5,3.9,16.5,11.8
					C428.3,120.8,422.7,124.7,411.6,124.8z"/>
				
					<linearGradient id="SVGID_6_" gradientUnits="userSpaceOnUse" x1="-184.1165" y1="-459.9296" x2="-184.1165" y2="-407.2286" gradientTransform="matrix(1 0 0 -1 232 -312.7246)">
					<stop  offset="0.27" style="stop-color:#FFFFFF"/>
					<stop  offset="0.3885" style="stop-color:#FCFCFC"/>
					<stop  offset="0.4838" style="stop-color:#F2F2F2"/>
					<stop  offset="0.5709" style="stop-color:#E1E1E1"/>
					<stop  offset="0.6532" style="stop-color:#C9C9C9"/>
					<stop  offset="0.7322" style="stop-color:#AAAAAA"/>
					<stop  offset="0.8087" style="stop-color:#848484"/>
					<stop  offset="0.8831" style="stop-color:#585858"/>
					<stop  offset="0.9541" style="stop-color:#252525"/>
					<stop  offset="1" style="stop-color:#000000"/>
				</linearGradient>
				<path class="st6" d="M94.2,124.8v8.2H77v14.2H58.5V133H1.5v-8.2h56.9v-15.8c0-5.2,1.7-8.9,5.1-11.1c3.4-2.2,9.1-3.3,17.2-3.3
					h13.5v8.2h-7.3c-4,0-6.8,0.6-8.3,1.9c-1,0.9-1.6,2.9-1.6,6.2v14L94.2,124.8L94.2,124.8z"/>
			</g>
		</g>
	</mask>
	<g class="st7">
		<path class="st8" d="M138.2,117.9c0.5,2.6,1.7,4.4,3.8,5.4c2.1,1,5.6,1.5,10.7,1.5h24.7v8.2h-26.1c-6.8,0-12.2-0.5-16.4-1.5
			c-4.2-1-7.7-2.7-10.7-5.1c-4.3-3.4-6.5-7.5-6.5-12.2c0-7.2,4.1-12.5,12.3-16.1c3-1.3,6.2-2.2,9.6-2.8c3.4-0.5,7.7-0.8,13.1-0.8
			h24.7v8.2h-22.7c-5.6,0-9.7,0.5-12.2,1.6c-2.5,1.1-3.9,2.8-4.3,5.4h39.2v8.2L138.2,117.9L138.2,117.9z"/>
		<path class="st8" d="M208.8,94.5h18.6v30.3h16.2c3.4,0,5.8-0.4,7.3-1.3c1.5-0.8,2.2-2.2,2.2-4.1V94.5h18.6v23.7
			c0,5.4-2.4,9.3-7.1,11.7c-2.3,1.2-4.8,2-7.7,2.4c-2.8,0.4-6.9,0.7-12.3,0.7h-35.8V94.5z"/>
		<path class="st8" d="M331.2,133c-6.2,0-11.2-0.3-15.1-0.9c-3.9-0.6-7.2-1.6-10-2.9c-7-3.4-10.4-8.5-10.4-15.4
			c0-5.7,2.9-10.3,8.7-14c3.1-2,6.7-3.4,10.6-4.1c4-0.8,9.4-1.2,16.2-1.2h25.4v8.2h-20.1c-3.9,0-6.9,0.1-9.1,0.4
			c-2.2,0.3-4.2,0.8-6,1.6c-4.5,1.9-6.8,4.9-6.8,9c0,3.7,1.4,6.4,4.1,8.2c2.9,1.9,8.1,2.9,15.5,2.9h22.3v8.2L331.2,133L331.2,133z"
			/>
		<path class="st8" d="M498.5,124.8h-56.9c3.8-3.4,5.8-7.5,5.8-12.2c0-6-3.4-10.8-10.3-14.4c-6.3-3.3-14.9-4.9-25.8-4.9
			c-11.3,0-20.2,1.8-26.6,5.5c-5.9,3.4-8.8,8.2-8.8,14.6c0,5.4,2.8,9.9,8.5,13.5c6.1,3.9,15,5.9,26.4,6.1v0.1h87.7L498.5,124.8
			L498.5,124.8z M411.6,124.8c-11.2,0-16.7-3.9-16.7-11.9c0-3.2,0.9-5.7,2.7-7.3c3-2.8,7.7-4.2,14.2-4.2c11,0,16.5,3.9,16.5,11.8
			C428.3,120.8,422.7,124.7,411.6,124.8z"/>
		<path class="st8" d="M94.2,124.8v8.2H77v14.2H58.5V133H1.5v-8.2h56.9v-15.8c0-5.2,1.7-8.9,5.1-11.1c3.4-2.2,9.1-3.3,17.2-3.3h13.5
			v8.2h-7.3c-4,0-6.8,0.6-8.3,1.9c-1,0.9-1.6,2.9-1.6,6.2v14L94.2,124.8L94.2,124.8z"/>
	</g>
</g>
</svg>
